<?xml version="1.0" standalone="no"?>
<!DOCTYPE svg PUBLIC "-//W3C//DTD SVG 20010904//EN"
 "http://www.w3.org/TR/2001/REC-SVG-20010904/DTD/svg10.dtd">
<svg version="1.0" xmlns="http://www.w3.org/2000/svg"
 width="737.000000pt" height="737.000000pt" viewBox="0 0 737.000000 737.000000"
 preserveAspectRatio="xMidYMid meet">
<metadata>
Created by potrace 1.14, written by Peter Selinger 2001-2017
</metadata>
<g transform="translate(0.000000,737.000000) scale(0.100000,-0.100000)"
fill="#000000" stroke="none">
<path d="M1250 4839 c-300 -6 -357 -9 -438 -28 -109 -24 -247 -70 -314 -105
-49 -25 -148 -93 -159 -109 -4 -5 -12 -6 -18 -3 -6 4 -10 3 -9 -2 2 -5 -14
-28 -35 -50 -20 -23 -54 -66 -76 -96 -21 -31 -42 -52 -46 -48 -5 4 -5 2 -2 -5
4 -6 -6 -37 -22 -70 -83 -169 -115 -342 -115 -618 0 -257 32 -448 100 -602 8
-17 14 -34 14 -38 0 -3 21 -39 47 -78 27 -40 49 -75 51 -79 7 -14 100 -106
143 -141 66 -53 210 -126 304 -153 178 -51 238 -56 655 -51 349 4 393 6 475
26 49 12 96 19 103 16 7 -3 11 -1 7 4 -3 5 19 17 47 27 197 65 388 243 455
424 9 25 19 50 23 55 4 6 12 37 19 70 7 33 17 73 22 89 5 16 9 119 9 228 0
217 -3 232 -58 273 -26 19 -45 20 -462 23 -279 2 -448 -1 -470 -7 -20 -6 -49
-24 -65 -41 l-30 -31 0 -129 c0 -123 1 -130 25 -155 46 -51 76 -56 280 -55
l187 0 1 -30 c0 -16 -3 -32 -8 -35 -4 -3 -6 -14 -3 -25 8 -28 -55 -153 -72
-146 -9 3 -12 0 -9 -9 3 -8 -6 -21 -23 -32 -15 -9 -30 -21 -33 -24 -11 -15
-135 -50 -212 -61 -120 -16 -526 -5 -602 16 -205 57 -288 188 -317 501 -15
169 3 475 29 495 4 3 8 21 10 40 7 92 120 237 200 256 15 4 32 10 37 14 6 4
46 16 90 26 118 28 562 27 683 0 45 -10 82 -23 82 -27 0 -5 6 -9 14 -9 17 0
86 -65 112 -105 29 -46 75 -94 110 -115 28 -18 50 -20 191 -20 l160 0 42 30
c54 40 64 67 59 170 -4 68 -10 97 -33 143 -42 86 -130 176 -227 234 -182 108
-306 147 -553 175 -16 2 -185 0 -375 -3z"/>
<path d="M5844 4838 c-164 -21 -235 -32 -303 -50 -81 -21 -185 -65 -231 -98
-17 -12 -30 -19 -30 -16 0 12 -103 -108 -131 -153 -72 -112 -106 -318 -76
-456 13 -60 45 -131 90 -198 49 -74 156 -151 293 -211 138 -59 182 -71 829
-226 211 -51 282 -73 368 -117 80 -42 107 -75 107 -133 0 -63 -32 -107 -99
-138 -67 -30 -136 -32 -551 -21 -286 7 -332 14 -404 58 -38 24 -75 65 -100
111 -57 107 -105 128 -296 131 -131 2 -149 0 -188 -20 -65 -33 -77 -60 -76
-166 0 -82 3 -96 36 -165 82 -170 278 -305 537 -372 l116 -30 450 -1 c467 -2
491 -1 640 32 121 26 137 32 230 79 106 54 212 158 244 239 8 18 18 30 24 26
5 -3 7 -2 4 3 -3 6 3 44 14 85 71 267 -10 492 -226 635 -89 57 -95 61 -150 87
-88 41 -275 100 -420 132 -22 5 -352 92 -665 175 -131 35 -197 74 -214 127
-22 69 38 155 125 179 73 21 629 20 729 -1 66 -14 124 -38 148 -62 7 -7 18
-16 25 -20 14 -9 27 -29 62 -95 51 -97 103 -118 287 -118 154 0 189 9 232 61
51 60 43 200 -18 321 -66 128 -177 216 -396 311 -55 24 -179 55 -249 62 -100
11 -701 21 -767 13z"/>
<path d="M2872 4800 c-18 -11 -41 -34 -52 -52 -20 -32 -20 -49 -18 -1066 l3
-1033 42 -40 42 -39 968 0 c826 1 971 3 987 15 10 8 23 12 28 9 5 -3 7 -2 6 3
-1 4 6 21 17 38 17 24 21 50 23 148 4 131 -3 158 -49 203 l-30 29 -715 3
c-458 1 -714 6 -714 12 0 17 5 25 13 22 5 -1 6 2 2 8 -3 6 -11 8 -16 5 -5 -4
-9 313 -9 820 0 900 2 875 -55 905 -14 7 -25 17 -25 22 0 4 -93 8 -207 8 -190
0 -211 -2 -241 -20z"/>
</g>
</svg>
